<svg width="180" height="72" viewBox="0 0 180 72" fill="none" xmlns="http://www.w3.org/2000/svg">
<rect x="0.5" y="0.5" width="179" height="71" rx="4.5" stroke="#8A38F5" stroke-dasharray="10 5"/>
<path d="M29.3333 21.5132V24.2669C29.3333 24.6402 29.3333 24.8269 29.406 24.9695C29.4699 25.095 29.5719 25.197 29.6973 25.2609C29.8399 25.3335 30.0266 25.3335 30.4 25.3335H33.1537M29.3333 31.3335H25.3333M30.6667 28.6668H25.3333M33.3333 26.659V31.4668C33.3333 32.5869 33.3333 33.147 33.1153 33.5748C32.9236 33.9511 32.6176 34.2571 32.2413 34.4488C31.8135 34.6668 31.2534 34.6668 30.1333 34.6668H25.8667C24.7466 34.6668 24.1865 34.6668 23.7587 34.4488C23.3824 34.2571 23.0764 33.9511 22.8847 33.5748C22.6667 33.147 22.6667 32.5869 22.6667 31.4668V24.5335C22.6667 23.4134 22.6667 22.8533 22.8847 22.4255C23.0764 22.0492 23.3824 21.7432 23.7587 21.5515C24.1865 21.3335 24.7466 21.3335 25.8667 21.3335H28.0078C28.497 21.3335 28.7416 21.3335 28.9718 21.3888C29.1759 21.4377 29.371 21.5186 29.5499 21.6282C29.7517 21.7519 29.9247 21.9249 30.2706 22.2708L32.3961 24.3962C32.742 24.7421 32.9149 24.9151 33.0386 25.1169C33.1483 25.2959 33.2291 25.491 33.2781 25.695C33.3333 25.9252 33.3333 26.1698 33.3333 26.659Z" stroke="#17191C" stroke-linecap="round" stroke-linejoin="round"/>
<path d="M102 22.2695V26.4001C102 26.9601 102 27.2401 102.109 27.4541C102.205 27.6422 102.358 27.7952 102.546 27.8911C102.76 28.0001 103.04 28.0001 103.6 28.0001H107.731M102 37H96M104 33H96M108 29.9882V37.2C108 38.8802 108 39.7202 107.673 40.362C107.385 40.9265 106.926 41.3854 106.362 41.673C105.72 42 104.88 42 103.2 42H96.8C95.1198 42 94.2798 42 93.638 41.673C93.0735 41.3854 92.6146 40.9265 92.327 40.362C92 39.7202 92 38.8802 92 37.2V26.8C92 25.1198 92 24.2798 92.327 23.638C92.6146 23.0735 93.0735 22.6146 93.638 22.327C94.2798 22 95.1198 22 96.8 22H100.012C100.746 22 101.112 22 101.458 22.0829C101.764 22.1564 102.056 22.2776 102.325 22.4421C102.628 22.6276 102.887 22.887 103.406 23.4059L106.594 26.5941C107.113 27.113 107.372 27.3724 107.558 27.6751C107.722 27.9436 107.844 28.2362 107.917 28.5423C108 28.8876 108 29.2545 108 29.9882Z" stroke="#17191C" stroke-width="1.5" stroke-linecap="round" stroke-linejoin="round"/>
<path d="M63.6667 21.8911V25.3332C63.6667 25.7999 63.6667 26.0333 63.7575 26.2116C63.8374 26.3684 63.9649 26.4958 64.1217 26.5757C64.2999 26.6666 64.5333 26.6666 65 26.6666H68.4421M63.6667 34.1665H58.6667M65.3333 30.8332H58.6667M68.6667 28.3234V34.3332C68.6667 35.7333 68.6667 36.4334 68.3942 36.9681C68.1545 37.4386 67.7721 37.821 67.3016 38.0607C66.7669 38.3332 66.0668 38.3332 64.6667 38.3332H59.3333C57.9332 38.3332 57.2331 38.3332 56.6984 38.0607C56.228 37.821 55.8455 37.4386 55.6058 36.9681C55.3333 36.4334 55.3333 35.7333 55.3333 34.3332V25.6665C55.3333 24.2664 55.3333 23.5663 55.6058 23.0315C55.8455 22.5611 56.228 22.1787 56.6984 21.939C57.2331 21.6665 57.9332 21.6665 59.3333 21.6665H62.0098C62.6213 21.6665 62.927 21.6665 63.2147 21.7356C63.4698 21.7968 63.7137 21.8978 63.9374 22.0349C64.1897 22.1895 64.4059 22.4057 64.8382 22.8381L67.4951 25.4949C67.9275 25.9273 68.1437 26.1435 68.2983 26.3958C68.4353 26.6195 68.5364 26.8633 68.5976 27.1184C68.6667 27.4061 68.6667 27.7119 68.6667 28.3234Z" stroke="#17191C" stroke-width="1.25" stroke-linecap="round" stroke-linejoin="round"/>
<path d="M146.667 23.0259V28.5333C146.667 29.28 146.667 29.6534 146.812 29.9386C146.94 30.1895 147.144 30.3934 147.395 30.5213C147.68 30.6666 148.053 30.6666 148.8 30.6666H154.307M146.667 42.6665H138.667M149.333 37.3332H138.667M154.667 33.3175V42.9332C154.667 45.1734 154.667 46.2935 154.231 47.1491C153.847 47.9018 153.235 48.5137 152.483 48.8972C151.627 49.3332 150.507 49.3332 148.267 49.3332H139.733C137.493 49.3332 136.373 49.3332 135.517 48.8972C134.765 48.5137 134.153 47.9018 133.769 47.1491C133.333 46.2935 133.333 45.1734 133.333 42.9332V29.0665C133.333 26.8263 133.333 25.7062 133.769 24.8505C134.153 24.0979 134.765 23.486 135.517 23.1025C136.373 22.6665 137.493 22.6665 139.733 22.6665H144.016C144.994 22.6665 145.483 22.6665 145.944 22.777C146.352 22.875 146.742 23.0366 147.1 23.2559C147.503 23.5033 147.849 23.8492 148.541 24.541L152.792 28.792C153.484 29.4838 153.83 29.8297 154.077 30.2334C154.297 30.5913 154.458 30.9814 154.556 31.3896C154.667 31.8499 154.667 32.3391 154.667 33.3175Z" stroke="#17191C" stroke-width="2" stroke-linecap="round" stroke-linejoin="round"/>
</svg>
