<svg width="180" height="72" viewBox="0 0 180 72" fill="none" xmlns="http://www.w3.org/2000/svg">
<rect x="0.5" y="0.5" width="179" height="71" rx="4.5" stroke="#8A38F5" stroke-dasharray="10 5"/>
<g clip-path="url(#clip0_1153_50)">
<path fill-rule="evenodd" clip-rule="evenodd" d="M28.0066 20C23.5792 20 20 23.6056 20 28.0661C20 31.6317 22.2933 34.6498 25.4747 35.7181C25.8725 35.7984 26.0182 35.5445 26.0182 35.331C26.0182 35.144 26.005 34.503 26.005 33.8352C23.7778 34.316 23.314 32.8736 23.314 32.8736C22.9561 31.9388 22.4257 31.6985 22.4257 31.6985C21.6967 31.2044 22.4788 31.2044 22.4788 31.2044C23.2874 31.2578 23.7118 32.0324 23.7118 32.0324C24.4275 33.2609 25.5807 32.9138 26.0447 32.7001C26.1109 32.1792 26.3232 31.8187 26.5485 31.6184C24.7721 31.4314 22.9031 30.737 22.9031 27.6387C22.9031 26.7573 23.2211 26.0362 23.7249 25.4754C23.6454 25.2751 23.3669 24.447 23.8045 23.3386C23.8045 23.3386 24.4806 23.1249 26.0049 24.1665C26.6575 23.99 27.3305 23.9002 28.0066 23.8994C28.6827 23.8994 29.3718 23.993 30.0082 24.1665C31.5327 23.1249 32.2087 23.3386 32.2087 23.3386C32.6463 24.447 32.3677 25.2751 32.2882 25.4754C32.8053 26.0362 33.1101 26.7573 33.1101 27.6387C33.1101 30.737 31.2411 31.418 29.4515 31.6184C29.7432 31.8721 29.9949 32.3528 29.9949 33.114C29.9949 34.1957 29.9818 35.0638 29.9818 35.3308C29.9818 35.5445 30.1277 35.7984 30.5253 35.7182C33.7067 34.6497 36 31.6317 36 28.0661C36.0131 23.6056 32.4208 20 28.0066 20Z" fill="#17191C"/>
</g>
<g clip-path="url(#clip1_1153_50)">
<path fill-rule="evenodd" clip-rule="evenodd" d="M100.01 20C93.3687 20 88 25.4083 88 32.0992C88 37.4475 91.4399 41.9748 96.2121 43.5771C96.8087 43.6976 97.0272 43.3168 97.0272 42.9965C97.0272 42.716 97.0076 41.7545 97.0076 40.7527C93.6667 41.474 92.971 39.3104 92.971 39.3104C92.4341 37.9082 91.6386 37.5478 91.6386 37.5478C90.5451 36.8066 91.7182 36.8066 91.7182 36.8066C92.9312 36.8868 93.5676 38.0486 93.5676 38.0486C94.6412 39.8913 96.3711 39.3707 97.0671 39.0501C97.1664 38.2688 97.4847 37.728 97.8228 37.4276C95.1582 37.1471 92.3547 36.1055 92.3547 31.458C92.3547 30.1359 92.8316 29.0543 93.5873 28.213C93.4681 27.9126 93.0504 26.6704 93.7068 25.0079C93.7068 25.0079 94.7208 24.6873 97.0073 26.2498C97.9863 25.985 98.9958 25.8502 100.01 25.8491C101.024 25.8491 102.058 25.9895 103.012 26.2498C105.299 24.6873 106.313 25.0079 106.313 25.0079C106.969 26.6704 106.552 27.9126 106.432 28.213C107.208 29.0543 107.665 30.1359 107.665 31.458C107.665 36.1055 104.862 37.1269 102.177 37.4276C102.615 37.8081 102.992 38.5292 102.992 39.6711C102.992 41.2936 102.973 42.5957 102.973 42.9962C102.973 43.3168 103.192 43.6976 103.788 43.5774C108.56 41.9745 112 37.4475 112 32.0992C112.02 25.4083 106.631 20 100.01 20Z" fill="#17191C"/>
</g>
<g clip-path="url(#clip2_1153_50)">
<path fill-rule="evenodd" clip-rule="evenodd" d="M62.0083 20C56.474 20 52 24.5069 52 30.0826C52 34.5396 54.8666 38.3123 58.8434 39.6476C59.3406 39.748 59.5227 39.4306 59.5227 39.1637C59.5227 38.93 59.5063 38.1288 59.5063 37.2939C56.7222 37.895 56.1425 36.092 56.1425 36.092C55.6951 34.9235 55.0321 34.6232 55.0321 34.6232C54.1209 34.0055 55.0985 34.0055 55.0985 34.0055C56.1093 34.0723 56.6397 35.0405 56.6397 35.0405C57.5343 36.5761 58.9759 36.1422 59.5559 35.8751C59.6386 35.224 59.9039 34.7733 60.1856 34.523C57.9651 34.2893 55.6289 33.4213 55.6289 29.5484C55.6289 28.4466 56.0263 27.5452 56.6561 26.8442C56.5567 26.5939 56.2087 25.5587 56.7556 24.1732C56.7556 24.1732 57.6007 23.9061 59.5061 25.2082C60.3219 24.9875 61.1632 24.8752 62.0083 24.8743C62.8533 24.8743 63.7148 24.9912 64.5102 25.2082C66.4159 23.9061 67.2609 24.1732 67.2609 24.1732C67.8079 25.5587 67.4596 26.5939 67.3603 26.8442C68.0066 27.5452 68.3876 28.4466 68.3876 29.5484C68.3876 33.4213 66.0514 34.2725 63.8143 34.523C64.179 34.8401 64.4936 35.441 64.4936 36.3926C64.4936 37.7446 64.4773 38.8298 64.4773 39.1635C64.4773 39.4306 64.6596 39.748 65.1566 39.6478C69.1333 38.3121 72 34.5396 72 30.0826C72.0163 24.5069 67.526 20 62.0083 20Z" fill="#17191C"/>
</g>
<g clip-path="url(#clip3_1153_50)">
<path fill-rule="evenodd" clip-rule="evenodd" d="M144.013 20C135.158 20 128 27.2111 128 36.1322C128 43.2633 132.587 49.2997 138.949 51.4362C139.745 51.5968 140.036 51.089 140.036 50.6619C140.036 50.2879 140.01 49.006 140.01 47.6703C135.556 48.632 134.628 45.7472 134.628 45.7472C133.912 43.8776 132.851 43.3971 132.851 43.3971C131.393 42.4088 132.958 42.4088 132.958 42.4088C134.575 42.5157 135.424 44.0648 135.424 44.0648C136.855 46.5218 139.161 45.8276 140.089 45.4001C140.222 44.3585 140.646 43.6373 141.097 43.2368C137.544 42.8628 133.806 41.474 133.806 35.2774C133.806 33.5146 134.442 32.0724 135.45 30.9507C135.291 30.5502 134.734 28.8939 135.609 26.6772C135.609 26.6772 136.961 26.2497 140.01 28.3331C141.315 27.98 142.661 27.8003 144.013 27.7988C145.365 27.7988 146.744 27.986 148.016 28.3331C151.065 26.2497 152.417 26.6772 152.417 26.6772C153.293 28.8939 152.735 30.5502 152.576 30.9507C153.611 32.0724 154.22 33.5146 154.22 35.2774C154.22 41.474 150.482 42.8359 146.903 43.2368C147.486 43.7442 147.99 44.7056 147.99 46.2281C147.99 48.3914 147.964 50.1277 147.964 50.6616C147.964 51.089 148.255 51.5968 149.051 51.4365C155.413 49.2994 160 43.2633 160 36.1322C160.026 27.2111 152.842 20 144.013 20Z" fill="#17191C"/>
</g>
<defs>
<clipPath id="clip0_1153_50">
<rect width="16" height="16" fill="white" transform="translate(20 20)"/>
</clipPath>
<clipPath id="clip1_1153_50">
<rect width="24" height="24" fill="white" transform="translate(88 20)"/>
</clipPath>
<clipPath id="clip2_1153_50">
<rect width="20" height="20" fill="white" transform="translate(52 20)"/>
</clipPath>
<clipPath id="clip3_1153_50">
<rect width="32" height="32" fill="white" transform="translate(128 20)"/>
</clipPath>
</defs>
</svg>
