<svg width="180" height="72" viewBox="0 0 180 72" fill="none" xmlns="http://www.w3.org/2000/svg">
<rect x="0.5" y="0.5" width="179" height="71" rx="4.5" stroke="#8A38F5" stroke-dasharray="10 5"/>
<g clip-path="url(#clip0_1153_65)">
<path d="M144 33.0908V39.2872H152.611C152.233 41.2799 151.098 42.9673 149.396 44.1018L154.589 48.1309C157.614 45.3383 159.36 41.2364 159.36 36.3637C159.36 35.2292 159.258 34.1382 159.069 33.091L144 33.0908Z" fill="#4285F4"/>
<path d="M135.033 39.0449L133.862 39.9414L129.716 43.1705C132.349 48.3922 137.745 51.9996 143.999 51.9996C148.319 51.9996 151.941 50.5741 154.588 48.1305L149.396 44.1014C147.97 45.0614 146.152 45.6433 143.999 45.6433C139.839 45.6433 136.305 42.836 135.039 39.0542L135.033 39.0449Z" fill="#34A853"/>
<path d="M129.716 28.8291C128.625 30.9817 128 33.4109 128 35.9999C128 38.589 128.625 41.0181 129.716 43.1707C129.716 43.1852 135.04 39.0398 135.04 39.0398C134.72 38.0798 134.531 37.0617 134.531 35.9997C134.531 34.9378 134.72 33.9197 135.04 32.9597L129.716 28.8291Z" fill="#FBBC05"/>
<path d="M144 26.3709C146.356 26.3709 148.451 27.1854 150.123 28.7564L154.705 24.1746C151.927 21.5856 148.32 20 144 20C137.745 20 132.349 23.5927 129.716 28.8291L135.04 32.96C136.305 29.1782 139.84 26.3709 144 26.3709Z" fill="#EA4335"/>
</g>
<g clip-path="url(#clip1_1153_65)">
<path d="M99.9998 29.8184V34.4656H106.458C106.174 35.9602 105.323 37.2257 104.047 38.0766L107.942 41.0984C110.211 39.0039 111.52 35.9276 111.52 32.273C111.52 31.4221 111.443 30.6039 111.302 29.8185L99.9998 29.8184Z" fill="#4285F4"/>
<path d="M93.2747 34.2842L92.3963 34.9566L89.2872 37.3783C91.2617 41.2947 95.3087 44.0002 99.9996 44.0002C103.239 44.0002 105.956 42.9311 107.941 41.0984L104.047 38.0765C102.978 38.7965 101.614 39.2329 99.9996 39.2329C96.8796 39.2329 94.2287 37.1275 93.2796 34.2911L93.2747 34.2842Z" fill="#34A853"/>
<path d="M89.2872 26.6221C88.469 28.2365 88 30.0584 88 32.0002C88 33.942 88.469 35.7638 89.2872 37.3783C89.2872 37.3891 93.28 34.2801 93.28 34.2801C93.04 33.5601 92.8981 32.7965 92.8981 32.0001C92.8981 31.2036 93.04 30.44 93.28 29.72L89.2872 26.6221Z" fill="#FBBC05"/>
<path d="M99.9998 24.7782C101.767 24.7782 103.338 25.3891 104.593 26.5673L108.029 23.1309C105.945 21.1892 103.24 20 99.9998 20C95.3089 20 91.2617 22.6945 89.2872 26.6218L93.2798 29.72C94.2289 26.8836 96.8798 24.7782 99.9998 24.7782Z" fill="#EA4335"/>
</g>
<g clip-path="url(#clip2_1153_65)">
<path d="M61.9998 28.1816V32.0544H67.3817C67.1453 33.2998 66.4361 34.3544 65.3725 35.0635L68.618 37.5817C70.5089 35.8363 71.5998 33.2726 71.5998 30.2272C71.5998 29.5181 71.5362 28.8362 71.418 28.1817L61.9998 28.1816Z" fill="#4285F4"/>
<path d="M56.3956 31.9033L55.6636 32.4636L53.0726 34.4818C54.7181 37.7454 58.0906 40 61.9996 40C64.6996 40 66.9632 39.1091 68.6178 37.5818L65.3723 35.0636C64.4814 35.6636 63.345 36.0273 61.9996 36.0273C59.3996 36.0273 57.1906 34.2728 56.3997 31.9091L56.3956 31.9033Z" fill="#34A853"/>
<path d="M53.0726 25.5186C52.3909 26.864 52 28.3822 52 30.0003C52 31.6185 52.3909 33.1367 53.0726 34.4821C53.0726 34.4911 56.4 31.9003 56.4 31.9003C56.2 31.3003 56.0818 30.6639 56.0818 30.0002C56.0818 29.3365 56.2 28.7002 56.4 28.1002L53.0726 25.5186Z" fill="#FBBC05"/>
<path d="M61.9998 23.9818C63.4726 23.9818 64.7817 24.4909 65.8271 25.4727L68.6907 22.6091C66.9543 20.991 64.6999 20 61.9998 20C58.0908 20 54.7181 22.2455 53.0726 25.5182L56.3999 28.1C57.1907 25.7363 59.3999 23.9818 61.9998 23.9818Z" fill="#EA4335"/>
</g>
<g clip-path="url(#clip3_1153_65)">
<path d="M27.9999 26.5459V29.6441H32.3053C32.1163 30.6404 31.5489 31.4841 30.698 32.0514L33.2944 34.0659C34.8071 32.6696 35.6798 30.6187 35.6798 28.1823C35.6798 27.6151 35.6289 27.0696 35.5344 26.546L27.9999 26.5459Z" fill="#4285F4"/>
<path d="M23.5164 29.5225L22.9309 29.9707L20.8581 31.5852C22.1745 34.1961 24.8725 35.9998 27.9997 35.9998C30.1596 35.9998 31.9705 35.287 33.2942 34.0653L30.6978 32.0507C29.9851 32.5307 29.076 32.8216 27.9997 32.8216C25.9197 32.8216 24.1525 31.418 23.5197 29.5271L23.5164 29.5225Z" fill="#34A853"/>
<path d="M20.8581 24.4141C20.3127 25.4904 20 26.7049 20 27.9995C20 29.294 20.3127 30.5086 20.8581 31.5849C20.8581 31.5921 23.52 29.5194 23.52 29.5194C23.36 29.0394 23.2654 28.5304 23.2654 27.9994C23.2654 27.4684 23.36 26.9593 23.52 26.4793L20.8581 24.4141Z" fill="#FBBC05"/>
<path d="M27.9999 23.1855C29.1781 23.1855 30.2253 23.5927 31.0617 24.3782L33.3526 22.0873C31.9635 20.7928 30.1599 20 27.9999 20C24.8726 20 22.1745 21.7964 20.8581 24.4146L23.5199 26.48C24.1526 24.5891 25.9199 23.1855 27.9999 23.1855Z" fill="#EA4335"/>
</g>
<defs>
<clipPath id="clip0_1153_65">
<rect width="32" height="32" fill="white" transform="translate(128 20)"/>
</clipPath>
<clipPath id="clip1_1153_65">
<rect width="24" height="24" fill="white" transform="translate(88 20)"/>
</clipPath>
<clipPath id="clip2_1153_65">
<rect width="20" height="20" fill="white" transform="translate(52 20)"/>
</clipPath>
<clipPath id="clip3_1153_65">
<rect width="16" height="16" fill="white" transform="translate(20 20)"/>
</clipPath>
</defs>
</svg>
