<svg width="180" height="72" viewBox="0 0 180 72" fill="none" xmlns="http://www.w3.org/2000/svg">
<rect x="0.5" y="0.5" width="179" height="71" rx="4.5" stroke="#8A38F5" stroke-dasharray="10 5"/>
<g clip-path="url(#clip0_1153_81)">
<path d="M159.363 28.2475C159.182 27.5668 158.825 26.9454 158.329 26.4457C157.832 25.9461 157.213 25.5855 156.534 25.4003C154.032 24.7275 144.032 24.7275 144.032 24.7275C144.032 24.7275 134.032 24.7275 131.53 25.4003C130.85 25.5855 130.231 25.9461 129.735 26.4457C129.238 26.9454 128.882 27.5668 128.701 28.2475C128.032 30.7603 128.032 36.0003 128.032 36.0003C128.032 36.0003 128.032 41.2403 128.701 43.753C128.882 44.4338 129.238 45.0551 129.735 45.5548C130.231 46.0545 130.85 46.415 131.53 46.6003C134.032 47.273 144.032 47.273 144.032 47.273C144.032 47.273 154.032 47.273 156.534 46.6003C157.213 46.415 157.832 46.0545 158.329 45.5548C158.825 45.0551 159.182 44.4338 159.363 43.753C160.032 41.2403 160.032 36.0003 160.032 36.0003C160.032 36.0003 160.032 30.7603 159.363 28.2475Z" fill="#FF0302"/>
<path d="M140.759 40.7586V31.2422L149.123 36.0004L140.759 40.7586Z" fill="#FEFEFE"/>
</g>
<g clip-path="url(#clip1_1153_81)">
<path d="M111.522 26.1859C111.386 25.6753 111.119 25.2093 110.747 24.8346C110.374 24.4598 109.91 24.1894 109.4 24.0504C107.524 23.5459 100.024 23.5459 100.024 23.5459C100.024 23.5459 92.5238 23.5459 90.6474 24.0504C90.1377 24.1894 89.6735 24.4598 89.3011 24.8346C88.9287 25.2093 88.6613 25.6753 88.5256 26.1859C88.0238 28.0704 88.0238 32.0004 88.0238 32.0004C88.0238 32.0004 88.0238 35.9304 88.5256 37.815C88.6613 38.3256 88.9287 38.7916 89.3011 39.1663C89.6735 39.5411 90.1377 39.8115 90.6474 39.9504C92.5238 40.455 100.024 40.455 100.024 40.455C100.024 40.455 107.524 40.455 109.4 39.9504C109.91 39.8115 110.374 39.5411 110.747 39.1663C111.119 38.7916 111.386 38.3256 111.522 37.815C112.024 35.9304 112.024 32.0004 112.024 32.0004C112.024 32.0004 112.024 28.0704 111.522 26.1859Z" fill="#FF0302"/>
<path d="M97.5693 35.5689V28.4316L103.842 32.0003L97.5693 35.5689Z" fill="#FEFEFE"/>
</g>
<g clip-path="url(#clip2_1153_81)">
<path d="M71.6017 25.1541C71.4886 24.7286 71.2657 24.3403 70.9554 24.028C70.6451 23.7157 70.2582 23.4904 69.8335 23.3746C68.2698 22.9541 62.0198 22.9541 62.0198 22.9541C62.0198 22.9541 55.7698 22.9541 54.2062 23.3746C53.7814 23.4904 53.3946 23.7157 53.0842 24.028C52.7739 24.3403 52.5511 24.7286 52.438 25.1541C52.0198 26.7246 52.0198 29.9996 52.0198 29.9996C52.0198 29.9996 52.0198 33.2746 52.438 34.845C52.5511 35.2705 52.7739 35.6588 53.0842 35.9711C53.3946 36.2834 53.7814 36.5088 54.2062 36.6246C55.7698 37.045 62.0198 37.045 62.0198 37.045C62.0198 37.045 68.2698 37.045 69.8335 36.6246C70.2582 36.5088 70.6451 36.2834 70.9554 35.9711C71.2657 35.6588 71.4886 35.2705 71.6017 34.845C72.0198 33.2746 72.0198 29.9996 72.0198 29.9996C72.0198 29.9996 72.0198 26.7246 71.6017 25.1541Z" fill="#FF0302"/>
<path d="M59.9744 32.9741V27.0264L65.2017 30.0002L59.9744 32.9741Z" fill="#FEFEFE"/>
</g>
<g clip-path="url(#clip3_1153_81)">
<path d="M35.6813 24.1233C35.5909 23.7829 35.4126 23.4722 35.1643 23.2224C34.9161 22.9725 34.6066 22.7923 34.2668 22.6996C33.0159 22.3633 28.0159 22.3633 28.0159 22.3633C28.0159 22.3633 23.0159 22.3633 21.765 22.6996C21.4252 22.7923 21.1156 22.9725 20.8674 23.2224C20.6191 23.4722 20.4409 23.7829 20.3504 24.1233C20.0159 25.3796 20.0159 27.9996 20.0159 27.9996C20.0159 27.9996 20.0159 30.6196 20.3504 31.876C20.4409 32.2164 20.6191 32.5271 20.8674 32.7769C21.1156 33.0267 21.4252 33.207 21.765 33.2996C23.0159 33.636 28.0159 33.636 28.0159 33.636C28.0159 33.636 33.0159 33.636 34.2668 33.2996C34.6066 33.207 34.9161 33.0267 35.1643 32.7769C35.4126 32.5271 35.5909 32.2164 35.6813 31.876C36.0159 30.6196 36.0159 27.9996 36.0159 27.9996C36.0159 27.9996 36.0159 25.3796 35.6813 24.1233Z" fill="#FF0302"/>
<path d="M26.3795 30.3793V25.6211L30.5613 28.0002L26.3795 30.3793Z" fill="#FEFEFE"/>
</g>
<defs>
<clipPath id="clip0_1153_81">
<rect width="32" height="32" fill="white" transform="translate(128 20)"/>
</clipPath>
<clipPath id="clip1_1153_81">
<rect width="24" height="24" fill="white" transform="translate(88 20)"/>
</clipPath>
<clipPath id="clip2_1153_81">
<rect width="20" height="20" fill="white" transform="translate(52 20)"/>
</clipPath>
<clipPath id="clip3_1153_81">
<rect width="16" height="16" fill="white" transform="translate(20 20)"/>
</clipPath>
</defs>
</svg>
